<svg xmlns="http://www.w3.org/2000/svg" viewBox="0 0 24 24" fill="none" stroke="currentColor" stroke-width="2" stroke-linecap="round" stroke-linejoin="round">
  <path d="M2 15c6.667-6 13.333 0 20-6"/>
  <path d="M9 22c1.798-1.998 2.518-3.995 2.807-5.993"/>
  <path d="M15 2c-1.798 1.998-2.518 3.995-2.807 5.993"/>
  <path d="M17 6l-2.5-2.5"/>
  <path d="M14 8l-3-3"/>
  <path d="M7 18l2.5 2.5"/>
  <path d="M3.5 14.5l.5.5"/>
  <path d="M20 9l.5.5"/>
  <path d="M6.5 12.5l1 1"/>
  <path d="M16.5 10.5l1 1"/>
  <path d="M10 16l-1.5 1.5"/>
  <path d="M2 9c6.667 6 13.333 0 20 6"/>
</svg>
